<svg width="37" height="37" viewBox="0 0 37 37" version="1.1" xmlns="http://www.w3.org/2000/svg" xmlns:xlink="http://www.w3.org/1999/xlink"><title>full</title><desc>Created with Sketch.</desc><g id="Page-1" stroke="none" stroke-width="1" fill="none" fill-rule="evenodd"><path d="M18.5,37 C8.28273213,37 0,28.7172679 0,18.5 C0,8.28273213 8.28273213,0 18.5,0 C28.7172679,0 37,8.28273213 37,18.5 C37,28.7172679 28.7172679,37 18.5,37 Z M12.9992038,9 C12.9328996,9 12.8693112,9.02633921 12.8224271,9.0732233 C12.724796,9.17085438 12.724796,9.32914562 12.8224271,9.4267767 L27.5732233,24.1775729 C27.6201074,24.224457 27.6836959,24.2507962 27.75,24.2507962 C27.8880712,24.2507962 28,24.1388674 28,24.0007962 L28,9.5 C28,9.22385763 27.7761424,9 27.5,9 L12.9992038,9 Z M9.5,28 L24.0007962,28 C24.0671004,28 24.1306888,27.9736608 24.1775729,27.9267767 C24.275204,27.8291456 24.275204,27.6708544 24.1775729,27.5732233 L9.4267767,12.8224271 C9.3798926,12.775543 9.31630412,12.7492038 9.25,12.7492038 C9.11192881,12.7492038 9,12.8611326 9,12.9992038 L9,27.5 C9,27.7761424 9.22385763,28 9.5,28 Z" id="full" fill="#7ED321"/></g></svg>